<?xml version="1.0" encoding="UTF-8" standalone="no"?>
<svg width="103px" height="92px" viewBox="0 0 103 92" version="1.1" xmlns="http://www.w3.org/2000/svg" xmlns:xlink="http://www.w3.org/1999/xlink" xmlns:sketch="http://www.bohemiancoding.com/sketch/ns">
    <!-- Generator: Sketch 3.3.2 (12043) - http://www.bohemiancoding.com/sketch -->
    <title>noun_36758_cc</title>
    <desc>Created with Sketch.</desc>
    <defs></defs>
    <g id="Page-1" stroke="none" stroke-width="1" fill="none" fill-rule="evenodd" sketch:type="MSPage">
        <g id="noun_36758_cc" sketch:type="MSLayerGroup" transform="translate(-0.208203, 0.000000)">
            <g id="Group" transform="translate(1.024359, 0.000000)" sketch:type="MSShapeGroup">
                <g transform="translate(26.894444, 31.102941)" id="Rectangle-path" fill="#803672">
                    <rect x="0" y="5.91515217e-14" width="10.3440171" height="10.3676471"></rect>
                    <rect x="18.6192308" y="5.91515217e-14" width="10.3440171" height="10.3676471"></rect>
                    <rect x="37.2384615" y="5.91515217e-14" width="10.3440171" height="10.3676471"></rect>
                </g>
                <g transform="translate(26.894444, 49.764706)" id="Rectangle-path" fill="#803672">
                    <rect x="0" y="5.91515217e-14" width="10.3440171" height="10.3676471"></rect>
                    <rect x="18.6192308" y="5.91515217e-14" width="10.3440171" height="10.3676471"></rect>
                    <rect x="37.2384615" y="5.91515217e-14" width="10.3440171" height="10.3676471"></rect>
                </g>
                <g transform="translate(26.894444, 66.352941)" id="Rectangle-path" fill="#803672">
                    <rect x="0" y="5.91515217e-14" width="10.3440171" height="10.3676471"></rect>
                    <rect x="18.6192308" y="5.91515217e-14" width="10.3440171" height="10.3676471"></rect>
                    <rect x="37.2384615" y="5.91515217e-14" width="10.3440171" height="10.3676471"></rect>
                </g>
                <g transform="translate(0.000000, 0.000000)" id="Shape">
                    <path d="M0,91.2352941 L0,16.5882353 L101.371368,16.5882353 L101.371368,91.2352941 L0,91.2352941 L0,91.2352941 Z M8.27521368,23.6714118 L8.27521368,82.6301471 L93.0961538,82.5534265 L93.0961538,23.5988382 L8.27521368,23.6714118 L8.27521368,23.6714118 Z" fill="#000000"></path>
                    <path d="M0,5.98829628e-14 L0,24.8823529 L101.371368,24.8823529 L101.371368,5.98829628e-14 L0,5.98829628e-14 L0,5.98829628e-14 Z M16.5504274,16.5882353 L8.27521368,16.5882353 L8.27521368,8.29411765 L16.5504274,8.29411765 L16.5504274,16.5882353 L16.5504274,16.5882353 Z M28.9632479,16.5882353 L20.6880342,16.5882353 L20.6880342,8.29411765 L28.9632479,8.29411765 L28.9632479,16.5882353 L28.9632479,16.5882353 Z M41.3760684,16.5882353 L33.1008547,16.5882353 L33.1008547,8.29411765 L41.3760684,8.29411765 L41.3760684,16.5882353 L41.3760684,16.5882353 Z" fill="#FC1C8A"></path>
                </g>
            </g>
        </g>
    </g>
</svg>