<?xml version="1.0" encoding="UTF-8" standalone="no"?>
<svg width="89px" height="88px" viewBox="0 0 89 88" version="1.1" xmlns="http://www.w3.org/2000/svg" xmlns:xlink="http://www.w3.org/1999/xlink" xmlns:sketch="http://www.bohemiancoding.com/sketch/ns">
    <!-- Generator: Sketch 3.3.2 (12043) - http://www.bohemiancoding.com/sketch -->
    <title>noun_49675_cc</title>
    <desc>Created with Sketch.</desc>
    <defs></defs>
    <g id="Page-1" stroke="none" stroke-width="1" fill="none" fill-rule="evenodd" sketch:type="MSPage">
        <g id="noun_49675_cc" sketch:type="MSLayerGroup">
            <g id="Group" sketch:type="MSShapeGroup">
                <path d="M24.7586264,61.7613333 C20.4445714,57.0924444 17.801956,50.8571556 17.801956,44 C17.801956,29.5288889 29.5362637,17.7975111 44.010989,17.7975111 C49.8077253,17.7975111 55.1584835,19.6865778 59.497967,22.8721778 C59.898956,23.1664889 60.2911429,23.4696 60.6745275,23.7854222 L72.7628791,10.7066667 C72.3882967,10.3830222 72.0058901,10.0672 71.6205495,9.75626667 C64.0692418,3.66177778 54.4719121,0 44.010989,0 C19.7042088,0 0,19.6992889 0,44 C0,56.2427556 5.01725275,67.3014222 13.0898462,75.2761778 L24.6441978,61.8923556 L24.7586264,61.7613333 L24.7586264,61.7613333 Z" id="Shape" fill="#000000"></path>
                <path d="M61.3904396,63.6015111 C56.7643956,67.7052444 50.6810989,70.2024889 44.010989,70.2024889 C40.6583297,70.2024889 37.4553077,69.5669333 34.5095055,68.4180444 L34.4302857,68.5676444 L26.1884945,84.2228444 C31.638033,86.6418667 37.6636264,88 44.010989,88 C55.9409011,88 66.75,83.2431111 74.6758901,75.5372444 L61.5195385,63.7178667 L61.3904396,63.6015111 L61.3904396,63.6015111 Z" id="Shape" fill="#000000"></path>
                <path d="M75.9766593,13.7847111 C75.6363077,13.4248889 75.2900879,13.0709333 74.938,12.7228444 L62.8535604,25.7986667 C63.1988022,26.1555556 63.5313297,26.5232 63.856033,26.8996444 C67.818,31.4893333 70.220022,37.4616 70.220022,44 C70.220022,49.6652444 68.4155714,54.9041778 65.3582747,59.1897778 C65.0697582,59.5936 64.7714615,59.9905778 64.4614286,60.3777778 C64.1513956,60.764 63.8345165,61.1443556 63.5039451,61.512 L76.7444066,73.4066667 C77.074978,73.0390222 77.3938132,72.6606222 77.7116703,72.2812444 C78.0305055,71.9018667 78.3395604,71.5166222 78.6456813,71.1264889 C84.5118571,63.6513778 88.021978,54.2392889 88.021978,44 C88.021978,32.2930667 83.4350549,21.6665778 75.9766593,13.7847111 L75.9766593,13.7847111 Z" id="Shape" fill="#FC1C8A"></path>
                <path d="M30.5123297,66.4566222 C30.0868901,66.2004444 29.6682967,65.9315556 29.2594835,65.6519111 L29.2937143,65.5873778 L29.2457912,65.6421333 C28.836,65.3615111 28.434033,65.0701333 28.0408681,64.7670222 C27.6486813,64.4648889 27.2652967,64.152 26.8916923,63.8293333 L15.263011,77.2992 C15.6375934,77.6228444 16.0278242,77.9269333 16.4131648,78.2368889 L17.5095275,79.2371556 L17.5809231,79.1550222 C18.6635934,79.9704889 19.7844066,80.7370667 20.9423846,81.4518222 C21.3629341,81.7119111 21.7922857,81.9592889 22.2226154,82.2047111 C22.651967,82.4501333 23.0764286,82.7033778 23.5145824,82.9341333 L31.8052747,67.1850667 C31.3661429,66.9552889 30.9358132,66.7118222 30.5123297,66.4566222 L30.5123297,66.4566222 Z" id="Shape" fill="#803672"></path>
            </g>
        </g>
    </g>
</svg>