<?xml version="1.0" encoding="UTF-8" standalone="no"?>
<svg width="95px" height="85px" viewBox="0 0 95 85" version="1.1" xmlns="http://www.w3.org/2000/svg" xmlns:xlink="http://www.w3.org/1999/xlink" xmlns:sketch="http://www.bohemiancoding.com/sketch/ns">
    <!-- Generator: Sketch 3.3.2 (12043) - http://www.bohemiancoding.com/sketch -->
    <title>noun_36758_cc</title>
    <desc>Created with Sketch.</desc>
    <defs></defs>
    <g id="Page-1" stroke="none" stroke-width="1" fill="none" fill-rule="evenodd" sketch:type="MSPage">
        <g id="noun_36758_cc" sketch:type="MSLayerGroup" transform="translate(-0.208203, 0.000000)">
            <g id="Group" transform="translate(0.948077, 0.000000)" sketch:type="MSShapeGroup">
                <g transform="translate(24.891667, 28.786765)" id="Rectangle-path" fill="#803672">
                    <rect x="0" y="5.47466212e-14" width="9.57371795" height="9.59558824"></rect>
                    <rect x="17.2326923" y="5.47466212e-14" width="9.57371795" height="9.59558824"></rect>
                    <rect x="34.4653846" y="5.47466212e-14" width="9.57371795" height="9.59558824"></rect>
                </g>
                <g transform="translate(24.891667, 46.058824)" id="Rectangle-path" fill="#803672">
                    <rect x="0" y="5.47466212e-14" width="9.57371795" height="9.59558824"></rect>
                    <rect x="17.2326923" y="5.47466212e-14" width="9.57371795" height="9.59558824"></rect>
                    <rect x="34.4653846" y="5.47466212e-14" width="9.57371795" height="9.59558824"></rect>
                </g>
                <g transform="translate(24.891667, 61.411765)" id="Rectangle-path" fill="#803672">
                    <rect x="0" y="5.47466212e-14" width="9.57371795" height="9.59558824"></rect>
                    <rect x="17.2326923" y="5.47466212e-14" width="9.57371795" height="9.59558824"></rect>
                    <rect x="34.4653846" y="5.47466212e-14" width="9.57371795" height="9.59558824"></rect>
                </g>
                <g transform="translate(0.000000, 0.000000)" id="Shape">
                    <path d="M0,84.4411765 L0,15.3529412 L93.8224359,15.3529412 L93.8224359,84.4411765 L0,84.4411765 L0,84.4411765 Z M7.65897436,21.9086471 L7.65897436,76.4768382 L86.1634615,76.4058309 L86.1634615,21.8414779 L7.65897436,21.9086471 L7.65897436,21.9086471 Z" fill="#000000"></path>
                    <path d="M0,5.41196717e-14 L0,23.0294118 L93.8224359,23.0294118 L93.8224359,5.41196717e-14 L0,5.41196717e-14 L0,5.41196717e-14 Z M15.3179487,15.3529412 L7.65897436,15.3529412 L7.65897436,7.67647059 L15.3179487,7.67647059 L15.3179487,15.3529412 L15.3179487,15.3529412 Z M26.8064103,15.3529412 L19.1474359,15.3529412 L19.1474359,7.67647059 L26.8064103,7.67647059 L26.8064103,15.3529412 L26.8064103,15.3529412 Z M38.2948718,15.3529412 L30.6358974,15.3529412 L30.6358974,7.67647059 L38.2948718,7.67647059 L38.2948718,15.3529412 L38.2948718,15.3529412 Z" fill="#FC1C8A"></path>
                </g>
            </g>
        </g>
    </g>
</svg>